<svg width="273" height="393" viewBox="0 0 273 393" fill="none" xmlns="http://www.w3.org/2000/svg">
<path d="M168.514 86.8272C164.236 83.1876 159.753 79.2554 157.764 73.5491C156.217 69.1414 156.375 64.1484 154.97 59.6675C152.839 52.8639 147.535 48.2367 143.225 43.006C138.916 37.7753 135.253 30.3133 137.542 23.5828C143.225 25.4117 148.908 27.2407 154.591 29.0696C156.296 29.6183 158.017 30.1852 159.485 31.3191C162.973 34.0259 164.173 39.2749 164.836 44.085C166.62 56.8144 166.667 69.8729 164.994 82.6205C161.095 79.8771 159.437 74.2258 159.185 68.9402C158.616 57.1253 163.557 45.2922 161.395 33.7333C159.785 25.1191 154.323 17.4559 154.765 8.65875C154.844 7.17732 155.112 5.64102 155.917 4.4888C157.938 1.59909 162.152 2.71472 164.378 5.38495C166.604 8.05519 167.646 11.7496 169.493 14.7857C173.376 21.1686 180.243 23.912 186.463 26.9663C192.682 30.0206 199.249 34.5563 200.938 42.1281C202.785 50.468 197.876 58.7531 192.54 64.752C185.468 72.7078 177.117 79.1273 168.041 83.5899C171.34 61.5148 173.487 39.2201 174.465 16.8341C174.702 11.5119 174.955 5.86048 177.67 1.5625C180.622 5.75074 184.79 8.7502 189.32 9.97558C190.946 10.4145 192.635 10.634 194.166 11.4387C197.481 13.1945 199.312 17.2547 201.301 20.7845C205.516 28.2649 211.483 34.41 218.398 38.3605C221.776 40.2992 225.47 41.7989 228.106 44.9081C230.742 48.0172 231.847 53.4857 229.274 56.668C228.248 57.93 226.827 58.6433 225.422 59.2286C218.84 61.972 211.799 62.8498 205.011 64.7702C191.293 68.6475 178.507 76.8595 168.404 88.272C180.306 94.5818 192.367 100.508 204.569 106.031C206.353 106.836 208.2 107.64 210.094 107.549C212.004 107.457 214.009 106.232 214.577 104.11C215.682 100.032 211.199 96.7581 210.568 92.5516C210.031 89.0401 212.257 85.2359 210.899 82.0353C210.236 80.4624 208.831 79.4748 207.442 78.7981C203.733 76.9875 199.502 76.6948 195.634 77.9568C193.124 78.7798 190.788 80.2429 188.326 81.2305C181.632 83.9191 174.308 83.0961 167.267 82.2182C173.613 89.9912 183.906 91.1251 193.109 90.2472C202.312 89.3694 211.689 86.9917 220.655 89.5887C222.991 90.2654 225.296 91.2713 227.711 91.2896C230.126 91.2896 232.747 89.9912 233.615 87.3758C234.389 84.9982 233.473 82.2731 232.005 80.371C230.537 78.4689 228.611 77.1521 226.89 75.5975C223.686 72.6895 221.16 68.7938 219.613 64.441C217.735 59.1371 217.293 53.1565 214.799 48.2001C212.841 44.3045 209.763 41.3599 206.732 38.5068C203.212 35.1964 199.06 31.7215 194.577 32.5994C190.046 33.4956 187.094 38.5618 185.168 43.3901C180.827 54.2905 178.807 66.5809 172.555 76.1462C168.404 82.5291 162.484 87.5039 159.722 94.8196C158.238 98.7518 157.78 103.068 157.196 107.311C156.249 114.243 154.923 121.101 153.249 127.85C151.134 136.391 148.466 144.731 146.319 153.254C141.173 173.774 136.406 259.953 137.653 281.26" stroke="#27273A" stroke-width="1.5" stroke-miterlimit="10"/>
<path d="M138.837 223.829C136.69 196.176 134.527 134.834 129.555 107.674C129.144 105.461 128.671 103.12 127.313 101.511C126.461 100.505 125.356 99.883 124.267 99.2795C109.159 90.8481 94.0523 82.4168 78.961 74.0037C75.346 71.9919 70.5629 70.1629 67.7373 73.4549C65.0063 76.6373 66.4744 82.179 68.9054 85.6723C71.3364 89.1655 74.6831 92.1101 75.7565 96.4264C76.6247 99.9745 75.8038 103.907 76.8773 107.382C78.2506 111.789 82.497 114.313 86.5382 114.514C90.5794 114.734 94.5259 113.106 98.3303 111.515C104.692 108.845 111.069 106.174 117.431 103.523C119.846 102.517 122.372 101.401 123.998 99.1148C126.429 95.6765 126.082 90.5006 124.393 86.5318C122.704 82.5447 119.91 79.3624 117.542 75.8874C112.38 68.334 109.096 59.3174 105.024 50.9043C100.951 42.4913 95.7414 34.2976 88.2431 30.1094C92.1422 34.2428 93.7366 41.083 92.158 46.9173C90.311 53.8123 84.8176 58.4577 81.6288 64.6578C79.8924 68.023 78.8505 71.8638 78.6138 75.7594C78.377 79.4721 78.9769 83.4775 81.2027 86.1477C83.3496 88.7265 86.5698 89.5678 89.6007 90.2994C99.7826 92.7319 109.98 95.1277 120.194 97.4688C122.041 97.8894 124.709 97.6517 124.835 95.4753C124.882 94.634 124.472 93.8658 124.045 93.1891C120.62 87.7938 115.411 84.3554 111.101 79.8928C103.682 72.193 99.0722 61.5852 93.0894 52.3491C90.4216 48.2523 86.9171 44.0824 82.497 43.9726C79.2136 48.4718 77.635 54.5987 78.2664 60.433C78.4085 61.7315 78.6453 63.1032 78.2664 64.3469C77.3351 67.4195 73.5307 67.6207 71.6521 70.0348C69.158 73.1989 70.9891 78.3748 69.8683 82.4533C68.3844 87.8121 62.0543 90.4274 61.6754 96.0423C61.4386 99.5172 63.8223 102.663 66.6164 103.962C69.4105 105.26 72.5204 105.15 75.5355 104.967C93.6261 103.907 111.654 101.657 129.523 98.2735" stroke="#27273A" stroke-width="1.5" stroke-miterlimit="10"/>
<path d="M144.299 251.028C145.941 233.836 154.718 218.82 163.242 204.628C165.642 200.641 168.057 196.617 171.167 193.362C174.182 190.198 177.75 187.838 181.301 185.515C196.345 175.621 211.453 165.672 227.649 158.648" stroke="#27273A" stroke-width="1.5" stroke-miterlimit="10"/>
<path d="M170.946 214.067C179.817 209.422 188.2 203.606 196.55 197.808C200.055 195.376 203.591 192.906 206.417 189.486C210.647 184.384 212.921 177.598 215.999 171.49C219.077 165.381 223.576 159.474 229.606 158.395C219.63 158.486 209.668 160.114 200.055 163.186C195.619 164.613 191.199 166.387 187.426 169.441C185.137 171.289 183.132 173.593 180.954 175.605C171.814 184.018 158.728 188.48 154.481 201.063C151.419 210.117 154.671 221.639 150.014 229.942C154.544 221.548 163.558 217.963 170.962 214.085L170.946 214.067Z" stroke="#27273A" stroke-width="1.5" stroke-miterlimit="10"/>
<path d="M95.8676 193.507C96.0096 193.233 96.1517 192.977 96.2938 192.702C99.3405 192.684 102.308 194.111 104.802 196.122C107.312 198.134 109.428 200.731 111.527 203.292C113.2 205.34 114.874 207.389 116.547 209.455C118.852 212.309 121.141 215.235 122.735 218.673C124.787 223.117 125.561 228.184 126.24 233.158C127.297 240.821 128.197 248.521 128.955 256.239C126.177 252.106 123.256 247.863 119.246 245.467C118.505 245.028 117.731 244.662 117.036 244.132C116.31 243.583 115.695 242.852 115.079 242.138C109.396 235.554 103.618 228.805 100.177 220.392C98.93 217.338 98.0145 214.101 96.5938 211.138C95.6308 209.144 94.4626 207.297 93.2629 205.487C89.6637 200.036 85.7961 194.824 81.7076 189.868C86.2223 191.806 91.0529 192.757 95.8676 192.666C91.6527 191.386 87.7063 188.88 84.5175 185.423C82.5601 183.302 80.8236 180.778 78.3926 179.461C78.7557 181.656 79.1976 183.832 79.7343 185.972C80.1132 187.508 80.5553 189.063 81.4708 190.27C82.2444 191.294 83.3178 191.989 84.3597 192.611C86.8696 194.129 89.4427 195.501 92.0789 196.708C94.1153 197.64 96.1832 198.482 98.0933 199.707C102.971 202.816 106.491 208.102 109.649 213.424C117.778 227.105 124.503 241.901 129.602 257.428C130.849 261.232 133.091 264.268 133.833 268.255" stroke="#27273A" stroke-width="1.5" stroke-miterlimit="10"/>
<path d="M187.839 295.3C198.181 298.547 199.894 313.552 211.174 318.963C215.006 320.799 220.335 320.751 224.434 321.498C229.304 322.395 233.654 326.532 238.537 326.977C243.45 327.431 248.295 327.036 253.354 327.712C256.922 328.19 264.171 327.145 266.034 324.334C266.417 323.766 268.238 322.877 268.864 322.738C269.372 322.628 270.979 322.9 270.457 322.95C268.085 323.192 260.435 317.31 258.105 316.114C253.91 313.959 248.015 314.471 243.87 312.119C236.818 308.109 228.619 305.591 221.246 302.057C212.608 297.913 203.611 300.41 194.904 299.611C194.098 299.535 188.06 296.383 188.243 295.799C188.371 295.393 189.185 296.095 189.656 296.243C192.286 297.068 194.273 299.013 196.568 300.32C201.937 303.373 206.358 306.492 212.168 309.134C220.527 312.931 231.131 317.023 240.285 318.25C246.656 319.106 254.251 320.151 260.433 322.091" stroke="#27273A" stroke-width="1.5" stroke-linecap="round" stroke-linejoin="round"/>
<path d="M83.943 290.206C79.3826 286.249 72.1402 287.996 67.0889 285.07C63.2568 282.853 59.4599 280.093 55.1832 279.023C50.514 277.86 44.9559 279.169 40.6208 280.235C34.6193 281.716 27.6981 280.309 21.6454 281.809C16.9077 282.977 12.1444 284.1 7.43502 285.263C6.07116 285.599 4.37403 286.033 2.93018 286.035C2.47882 286.035 1.16554 285.855 1.19645 285.944C1.73745 287.626 12.242 293.057 14.1874 294.047C19.2793 296.653 23.7802 296.726 28.939 297.726C34.7314 298.847 40.8834 302.171 46.7717 302.179C51.929 302.182 56.6367 299.773 61.4307 298.597C67.0451 297.208 70.7824 292.461 75.5561 289.705C77.0013 288.87 79.5659 288.839 81.2979 289.442C82.1831 289.75 84.7322 289.656 83.9865 290.087C82.8718 290.73 77.0576 288.684 75.5338 288.388C69.3591 287.191 63.3196 290.702 57.1871 290.323C50.6495 289.918 44.1456 289.802 37.6213 289.792C32.4384 289.78 26.0029 290.883 20.957 289.901C16.0958 288.955 11.394 286.564 6.49663 285.449" stroke="#27273A" stroke-width="1.5" stroke-linecap="round" stroke-linejoin="round"/>
<path d="M127.897 330.372C128.42 329.583 126.292 331.365 125.707 332.085C124.44 333.646 122.66 334.625 122.121 336.839C120.642 342.869 119.517 349.113 116.634 354.335C113.07 360.791 107.287 366.117 99.2304 366.113C97.0121 366.115 94.6048 365.872 92.4778 366.24C87.5809 367.088 82.7312 368.181 77.8732 369.294C74.1353 370.149 71.162 369.492 67.419 369.587C64.8516 369.652 62.6324 370.978 59.9962 370.979C58.6138 370.982 56.5832 372.476 56.0654 373.528C55.7739 374.123 56.0931 376.232 55.7356 375.576C53.1903 370.852 61.8784 361.103 64.3159 358.676C68.4952 354.494 73.4863 352.088 77.8897 348.545C86.847 341.349 95.7183 333.147 108.655 334.976C112.367 335.502 118.611 334.753 122.023 333.843C123.478 333.456 126.04 332.376 126.878 331.129C127.077 330.83 127.647 330.377 127.647 330.377C127.647 330.377 127.194 330.885 126.941 331.095C125.558 332.257 123.962 333.217 122.728 334.538C119.934 337.53 115.929 339.255 112.349 341.23C101.825 347.061 91.0167 352.819 80.1438 358.052C75.2939 360.38 69.0523 360.771 65.0398 364.563C64.5278 365.051 61.5482 368.498 61.6303 368.565" stroke="#27273A" stroke-width="1.5" stroke-linecap="round" stroke-linejoin="round"/>
</svg>
