<svg width="453" height="537" viewBox="0 0 453 537" fill="none" xmlns="http://www.w3.org/2000/svg">
<path d="M1.25977 82.4062C8.90714 103.131 21.0492 122.187 36.5999 137.878C31.0059 137.423 27.1256 143.704 21.6582 144.984C19.6534 145.453 17.5623 145.213 15.5036 145.175C12.9949 145.129 10.1898 145.542 8.63499 147.511C7.03976 149.535 7.34964 152.41 7.74037 154.957C8.12031 157.441 8.76972 160.308 11.0413 161.392C12.1865 161.939 13.515 161.89 14.7815 161.831C16.5922 161.747 18.4003 161.664 20.2111 161.577C23.1348 161.443 26.1313 161.289 28.8232 160.136C31.5151 158.983 33.8756 156.6 34.1451 153.685C34.4577 150.271 31.79 147.145 28.6373 145.8C25.4819 144.456 21.9357 144.488 18.5054 144.545C14.9889 144.601 10.9982 144.879 8.77511 147.606C8.08528 148.452 7.63797 149.468 7.24725 150.489C5.90532 154.003 6.52239 157.74 6.40383 161.502C6.3688 162.561 6.38766 163.639 6.67329 164.66C7.07748 166.104 7.99636 167.355 9.02301 168.451C14.0377 173.811 20.3405 174.603 27.6807 174.66C35.0209 174.714 42.2263 174.288 49.4264 172.86" stroke="#161615" stroke-width="1.5" stroke-miterlimit="10"/>
<path d="M39.7695 260.633C44.0836 260.126 47.8183 256.44 48.3842 252.134C49.0471 247.089 45.8243 242.441 42.7686 238.375C37.5626 243.341 35.6224 251.447 38.0099 258.234C39.6967 263.031 43.8357 267.278 48.9043 267.676C53.6684 268.051 57.9906 265.122 61.8574 262.314C84.8669 245.594 108.324 227.998 135.903 221.043" stroke="#161615" stroke-width="1.5" stroke-miterlimit="10"/>
<path d="M49.0049 173.17C52.7935 172.582 56.5795 171.995 60.3682 171.408C62.4215 171.09 64.5826 170.726 66.1994 169.422C67.8188 168.117 68.603 165.533 67.2907 163.922C67.9724 165.967 68.6542 168.015 69.3359 170.06C75.027 171.065 80.6561 168.333 86.3956 167.64C92.6876 166.881 99.0227 168.592 105.358 168.417C109.537 168.301 113.665 167.363 117.847 167.314C122.148 167.263 126.398 168.155 130.607 169.039C135.206 170.006 139.806 170.976 144.406 171.944" stroke="#161615" stroke-width="1.5" stroke-miterlimit="10"/>
<path d="M35.6826 137.915C47.4609 136.288 59.099 133.642 70.4218 130.02C71.2518 132.612 72.0898 135.267 72.009 137.985C71.9281 140.704 70.7452 143.553 68.3874 144.905C67.2125 145.579 65.6981 145.967 65.143 147.201C62.893 142.814 61.2143 138.134 60.1607 133.318C71.8527 129.613 83.7764 126.692 95.6894 123.774C98.4568 123.098 101.224 122.419 103.989 121.742C108.206 125.14 107.616 132.367 112.013 135.525C114.334 137.191 117.341 137.465 120.186 137.686C122.913 137.897 125.694 138.104 128.354 137.473C130.647 136.929 132.749 135.787 134.818 134.658C139.887 131.89 145.112 128.993 148.62 124.404" stroke="#161615" stroke-width="1.5" stroke-miterlimit="10"/>
<path d="M439.413 308.348C437.476 331.136 441.437 353.949 444.199 376.651C446.621 396.562 448.125 416.575 449.243 436.602C451.102 469.921 451.892 503.3 451.612 536.67" stroke="#161615" stroke-width="1.5" stroke-miterlimit="10"/>
<path d="M241.292 216.87C242.868 212.946 252.283 211.162 256.498 210.842C260.976 210.502 265.554 211.305 269.909 210.09C270.448 209.939 270.952 209.643 271.299 209.201C272.63 207.503 270.731 205.49 269.012 204.461C265.546 202.389 261.733 200.694 257.699 200.481C253.668 200.268 249.381 201.755 247.004 205.019C244.531 208.414 244.458 213.084 241.758 216.425C240.912 217.471 239.81 218.309 238.524 218.699C235.369 219.661 233.361 217.522 231.341 215.792C224.72 210.125 215.722 207.859 207.008 207.829C198.294 207.8 189.716 209.81 181.234 211.806C167.421 215.062 153.606 218.317 139.793 221.569L139.823 221.523C144.177 223.539 148.146 226.387 151.447 229.871C153.026 231.537 154.484 233.399 155.16 235.592C155.872 237.899 155.662 240.38 155.376 242.779C155.058 245.438 154.651 248.117 153.668 250.609C152.684 253.102 151.073 255.422 148.785 256.818C147.831 257.4 146.78 257.812 145.705 258.114C143.889 258.623 141.989 258.825 140.108 258.709C138.384 258.604 136.683 258.232 135.04 257.704C133.587 257.241 132.154 256.64 130.973 255.675C128.81 253.908 127.764 251.146 126.859 248.502C125.716 245.166 124.644 241.774 124.272 238.268C123.9 234.762 124.264 231.097 125.867 227.958L125.466 227.659C125.506 228.187 125.024 228.589 124.59 228.89C118.144 233.366 111.173 237.082 103.868 239.939C98.8372 241.906 93.3401 243.681 90.0446 247.96C88.9802 249.343 88.1987 250.935 87.6517 252.593C86.1347 257.168 86.4984 262.288 88.444 266.688C89.926 270.04 94.8329 269.571 95.7599 266.025C96.6276 262.706 96.7084 259.038 96.7138 255.578C96.7138 253.048 96.6707 250.351 95.2398 248.257C94.6201 247.349 93.7093 246.64 92.6314 246.43C90.9419 246.104 90.0931 247.176 89.2739 248.154C86.7383 251.183 83.7849 253.856 80.519 256.079C78.7433 257.289 76.8705 258.367 75.2079 259.731C72.6965 261.789 70.7402 264.43 68.8108 267.041C67.8435 268.351 66.8572 269.695 66.3884 271.256C65.7902 273.242 66.0866 275.381 66.5366 277.407C67.2587 280.663 68.986 284.403 72.5618 284.387C73.8741 284.381 75.1217 283.791 76.0621 282.88C78.1316 280.878 78.6516 278.065 78.9238 275.341C79.3226 271.326 79.266 267.262 78.7514 263.261C78.6597 262.555 78.3525 261.878 77.8244 261.399C76.4447 260.146 74.9735 261.04 73.8471 261.946C71.5001 263.835 69.4144 266.044 67.6656 268.496C66.0138 270.811 64.6153 273.659 65.3267 276.413C65.5557 277.302 65.9949 278.119 66.4288 278.927C67.2722 280.501 68.1183 282.075 68.9617 283.648C69.3956 284.459 70.3171 285.4 71.0555 284.85L69.8052 284.923C71.8639 289.032 77.0915 290.692 81.6454 290.08C86.1993 289.469 90.2898 287.087 94.3425 284.92C108.034 277.602 122.771 272.247 137.966 269.068C142.391 268.141 146.872 267.394 151.164 265.969C154.624 264.818 157.968 263.226 161.563 262.619C164.999 262.04 168.512 262.39 171.994 262.326C179.151 262.194 186.141 260.315 193.16 258.922C199.199 257.723 205.302 256.877 211.4 256.031C218.04 255.109 224.682 254.188 231.322 253.266L230.977 253.371C230.869 253.28 230.764 253.188 230.656 253.096C232.841 253.04 234.997 253.568 237.169 253.824C239.341 254.08 241.664 254.029 243.55 252.924C243.898 252.722 244.194 252.778 244.471 252.487C249.341 247.322 267.54 241.79 272.199 241.668C273.795 241.625 275.481 241.795 276.78 242.717C278.082 243.638 278.815 245.516 278.014 246.896C277.694 247.451 277.176 247.861 276.67 248.26C274.115 250.264 271.558 252.269 269.003 254.277C267.198 255.694 265.341 257.168 264.237 259.181C261.194 264.729 264.813 272.301 261.488 277.685C258.467 282.576 251.717 268.836 251.273 267.815C250.031 264.945 244.684 259.599 243.496 256.123L244.145 257.238C244.043 256.643 243.612 256.144 243.1 255.823C242.286 255.314 241.276 255.19 240.411 254.88C237.495 253.835 234.375 253.603 231.3 253.983C231.133 254.005 231.246 253.964 231.27 254.12C210.74 259.194 188.194 256.451 168.919 265.265C166.516 266.365 164.117 267.656 161.485 267.893C160.773 267.957 160.013 267.955 159.421 268.353C158.801 268.768 158.515 269.523 158.321 270.242C156.473 277.028 159.434 284.093 162.336 290.501C159.779 283.616 159.405 275.942 161.275 268.841C154.53 270.296 147.783 271.751 141.038 273.204C135.562 274.384 129.295 276.19 127.117 281.352C126.71 282.32 126.463 283.384 125.792 284.193C124.784 285.408 123.075 285.758 121.804 286.693C119.039 288.725 119.015 292.772 119.263 296.195C119.368 297.66 119.613 299.355 120.879 300.096C121.672 300.56 122.65 301.875 123.566 301.805C126.066 301.613 128.564 301.419 131.065 301.228C132.175 301.142 133.372 301.023 134.21 300.288C135.659 299.018 135.29 295.34 134.797 293.478C134.099 290.843 133.358 288.121 131.634 286.011C129.909 283.902 126.91 282.576 124.393 283.621C123.057 284.176 122.038 285.308 121.275 286.537C118.961 290.261 118.732 295.192 120.693 299.115C121.351 300.43 122.324 301.697 123.717 302.163C124.458 302.411 125.269 302.411 126.002 302.678C127.896 303.368 128.742 305.553 130.278 306.857C132.353 308.617 135.366 308.56 138.082 308.409C143.673 308.099 149.262 307.787 154.853 307.477C163.91 306.973 172.977 306.469 181.967 305.251C194.2 303.594 206.404 300.614 218.722 301.425C222.238 301.657 228.067 301.673 231.489 302.519C230.616 302.551 229.74 302.583 228.867 302.619C252.86 308.191 274.42 323.567 299.014 324.876C301.39 325.003 303.832 324.984 306.071 324.181C307.469 323.68 308.771 322.877 310.237 322.624C312.67 322.206 315.055 323.365 317.431 324.036C321.746 325.253 326.329 324.874 330.8 325.224C335.27 325.574 340.053 326.913 342.702 330.53C345.515 334.372 345.14 339.605 344.639 344.342C342.384 365.665 340.126 386.985 337.87 408.308C335.558 430.159 333.244 452.015 330.331 473.795C328.894 484.531 327.313 495.245 325.585 505.937" stroke="#161615" stroke-width="1.5" stroke-miterlimit="10"/>
<path d="M118.008 176.523C118.102 176.118 117.375 176.364 117.221 176.749C114.41 183.758 113.686 191.583 115.141 198.993C115.421 200.413 115.795 201.858 116.65 203.024C117.504 204.191 118.937 205.034 120.368 204.814C121.408 204.652 122.287 203.973 123.06 203.259C129.387 197.414 131.505 187.684 128.856 179.487C128.406 178.093 127.797 176.69 126.679 175.744C125.561 174.798 123.823 174.453 122.626 175.294" stroke="#161615" stroke-width="1.5" stroke-miterlimit="10"/>
<path d="M163.751 62.5183C158.987 67.5465 157.394 74.8436 161.897 80.1062C165.257 84.0323 170.463 85.8189 175.516 86.9075C180.568 87.9961 187.183 89.9524 191.845 92.1836C195.963 94.1561 202.271 97.3923 204.494 101.343C205.739 103.555 208.517 106.557 210.557 108.063C211.926 109.074 212.297 109.548 213.987 109.906C218.719 110.906 220.424 111.132 225.728 110.577C226.557 110.491 227.374 110.238 228.075 109.785C229.928 108.591 231.241 106.735 233.068 105.527L233.227 105.417C245.598 97.1875 256.756 87.1339 266.228 75.6843C269.723 71.4591 272.986 67.048 276.249 62.6423C280.806 56.4823 285.371 50.3143 289.378 43.7825C296.664 31.8964 302.048 18.849 305.265 5.28687L304.651 6.06832C298.857 10.1022 293.061 14.1388 287.268 18.1726C283.113 21.0667 278.098 24.0981 273.309 22.4544C269.973 21.3092 267.799 18.1942 265.587 15.4457C261.138 9.91626 255.66 5.2195 249.518 1.66797L247.174 14.7424C247.174 14.7424 246.676 29.0213 245.145 35.7147C243.703 42.0148 241.653 48.3068 241.909 54.7631C242.009 57.2799 242.459 59.7698 242.744 62.2731C243.542 69.2738 243.049 76.3499 242.556 83.3775C242.2 88.4273 241.763 93.733 238.964 97.9528C237.331 100.416 233.631 106.436 231.34 108.303C227.431 111.491 224.892 110.564 220.982 113.749C216.695 117.244 212.373 120.76 207.482 123.342C193.826 130.544 177.356 129.653 162.188 126.772C143.932 123.307 128.378 118.036 114.978 114.016C112.941 113.404 110.777 112.795 108.716 113.32C105.231 114.21 103.254 118.739 104.97 121.9C112.526 120.308 120.405 118.769 127.961 117.176C130.135 116.718 130.963 114.886 133.183 114.969C136.042 115.077 138.78 114.711 141.523 115.527C150.515 118.206 160.005 117.575 169.375 117.125C174.489 116.88 180.194 116.446 183.775 120.661C184.147 121.1 184.634 121.437 185.179 121.625C188.42 122.735 190.258 121.051 191.139 119.79C193.362 116.619 200.282 120.876 202.338 124.161C202.338 124.161 202.16 124.848 203.424 125.228C207.878 126.57 212.335 127.912 216.789 129.254C218.231 129.688 219.681 130.124 221.174 130.31C223.359 130.585 225.569 130.318 227.759 130.108C231.332 129.766 235.081 129.596 238.365 131.043L237.988 130.938C243.588 133.255 248.362 137.152 253.17 140.841C285.78 165.852 323.381 183.37 358.724 204.343C385.285 220.106 411.687 239.033 425.61 266.605C430.846 276.974 434.115 288.205 437.353 299.364C439.016 305.09 440.11 312.352 437.111 316.873C437.111 316.873 433.012 322.872 429.577 325.58C428.44 326.477 427.227 327.275 426.093 328.175C423.794 329.996 416.939 341.737 416.06 345.264C414.147 352.928 415.058 361.125 417.249 368.621C417.78 370.435 418.391 372.326 417.993 374.172C417.416 376.832 414.948 378.586 412.66 380.057C407.421 383.426 401.057 386.821 395.274 384.509C393.609 383.843 392.148 382.739 390.876 381.475C383.129 373.787 383.329 359.616 391.286 352.149C394.891 348.767 399.588 346.808 403.541 343.839C408.332 340.239 416.467 331.912 416.467 331.912C417.195 330.942 418.302 330.352 419.34 329.721C423.843 326.989 427.513 323.109 431.124 319.274C432.414 317.905 433.797 316.27 433.57 314.402C433.57 314.402 430.795 306.265 428.458 302.263C409.971 270.609 381.238 246.123 350.575 226.032C319.913 205.941 286.917 189.67 255.735 170.398C258.85 169.159 262.534 171.215 265.63 169.134C266.061 168.846 266.363 168.391 266.492 167.887C267.389 164.422 265.584 164.82 264.552 164.039C243.488 148.127 217.361 172.096 217.361 172.096C215.784 171.786 214.052 172.532 213.195 173.893C214.464 174.987 216.286 175.084 217.962 175.127C220.567 175.192 223.173 175.259 225.776 175.324C229.435 175.416 233.211 175.488 236.614 174.144C238.446 173.419 240.103 172.309 241.928 171.562C246.25 169.792 251.116 170.202 255.767 170.641C257.02 170.016 256.832 168.286 256.433 166.944C256.034 165.602 254.964 164.556 253.803 163.772C248.287 160.048 240.985 161.215 234.385 160.358C231.882 160.035 229.08 159.124 228.099 156.796C227.727 155.917 227.67 154.931 227.307 154.047C226.943 153.166 226.081 152.347 225.145 152.53L226.477 152.511C219.912 152.169 214.275 156.731 208.398 159.676C200.694 163.535 191.975 164.737 183.433 165.885C167.37 168.043 151.307 170.199 135.244 172.357C129.494 173.131 123.684 173.917 118.265 175.987C112.846 178.056 107.772 181.562 104.932 186.623C102.766 190.481 102.025 195.068 102.558 199.46C103.348 205.959 107.374 212.391 113.59 214.439C119.774 216.474 126.837 213.704 131.17 208.845C135.503 203.987 137.465 197.42 138.149 190.948C138.769 185.071 137.812 178.024 132.62 175.205C130.259 173.926 127.43 173.802 124.765 174.136C112.793 175.631 103.712 185.13 94.2131 192.567C85.1322 199.678 74.9491 205.229 64.8335 210.775C61.5487 212.575 58.1103 214.526 56.2025 217.748C54.1358 221.241 54.2624 225.692 55.5882 229.529C56.9139 233.367 59.3121 236.724 61.678 240.022C67.0565 238.85 70.0287 232.421 68.9616 227.021C67.8973 221.621 63.8364 217.285 59.3903 214.038C53.6804 222.084 47.9704 230.13 42.2632 238.174C43.015 238.594 43.7695 239.017 44.5213 239.438" stroke="#161615" stroke-width="1.5" stroke-miterlimit="10"/>
</svg>
